arm26_states
version=1
nRows=31
nColumns=17
inDegrees=yes

# SIMM Motion File Header:
name arm26_states
datacolumns 17
datarows 31
otherdata 1
range 0.22716372 0.28085327
endheader
time	r_shoulder_elev	r_elbow_flex	r_shoulder_elev_u	r_elbow_flex_u	TRIlong.activation	TRIlong.fiber_length	TRIlat.activation	TRIlat.fiber_length	TRImed.activation	TRImed.fiber_length	BIClong.activation	BIClong.fiber_length	BICshort.activation	BICshort.fiber_length	BRA.activation	BRA.fiber_length
      0.22716372	     -9.04170888	     45.14925304	    -46.43209169	    289.48420758	      0.01001416	      0.14850655	      0.01721226	      0.08820431	      0.01654964	      0.08322947	      0.18775384	      0.13429552	      0.02709904	      0.13264433	      0.01015725	      0.08294002
      0.22894682	     -9.12382098	     45.66394946	    -45.66701769	    287.81471200	      0.01001411	      0.14865020	      0.01739882	      0.08840235	      0.01672672	      0.08342750	      0.18828757	      0.13402792	      0.02713188	      0.13236839	      0.01015431	      0.08282882
      0.23072992	     -9.20456259	     46.17563269	    -44.89471209	    286.10123777	      0.01001405	      0.14880215	      0.01758810	      0.08859881	      0.01690430	      0.08362400	      0.18882616	      0.13375912	      0.02716295	      0.13209172	      0.01015192	      0.08271699
      0.23251303	     -9.28392182	     46.68423045	    -44.11687475	    284.35782743	      0.01001400	      0.14894415	      0.01777964	      0.08879355	      0.01708232	      0.08381882	      0.18936883	      0.13348919	      0.02719256	      0.13181438	      0.01015007	      0.08260448
      0.23429613	     -9.36188906	     47.18968654	    -43.33325040	    282.57404348	      0.01001394	      0.14909483	      0.01797304	      0.08898664	      0.01726069	      0.08401201	      0.18991430	      0.13321825	      0.02722092	      0.13153645	      0.01014869	      0.08249131
      0.23607924	     -9.43845500	     47.69193528	    -42.54550879	    280.76455512	      0.01001388	      0.14923485	      0.01816777	      0.08917801	      0.01743928	      0.08420352	      0.19045827	      0.13294636	      0.02724822	      0.13125800	      0.01014759	      0.08237752
      0.23786234	     -9.51361259	     48.19092793	    -41.75345296	    278.91810389	      0.01001382	      0.14938445	      0.01836360	      0.08936768	      0.01761805	      0.08439334	      0.19100065	      0.13267362	      0.02727462	      0.13097911	      0.01014673	      0.08226316
      0.23964545	     -9.58735512	     48.68660512	    -40.95868945	    277.05047089	      0.01001377	      0.14952220	      0.01856035	      0.08955562	      0.01779697	      0.08458145	      0.19154170	      0.13240012	      0.02730027	      0.13069984	      0.01014610	      0.08214828
      0.24142855	     -9.65967804	     49.17892572	    -40.16103048	    275.14890488	      0.01001371	      0.14967084	      0.01875787	      0.08974182	      0.01797602	      0.08476782	      0.19208163	      0.13212594	      0.02732529	      0.13042027	      0.01014568	      0.08203291
      0.24321166	     -9.73057714	     49.66783623	    -39.36203990	    273.23080107	      0.01001365	      0.14980617	      0.01895576	      0.08992632	      0.01815492	      0.08495249	      0.19261776	      0.13185115	      0.02734909	      0.13014046	      0.01014547	      0.08191709
      0.24499476	     -9.80005037	     50.15330333	    -38.56158776	    271.28178525	      0.01001359	      0.14995381	      0.01915355	      0.09010905	      0.01833334	      0.08513536	      0.19314655	      0.13157585	      0.02737088	      0.12986050	      0.01014541	      0.08180086
      0.24677786	     -9.86809601	     50.63527943	    -37.76115002	    269.32080946	      0.01001353	      0.15008673	      0.01935126	      0.09029009	      0.01851134	      0.08531655	      0.19366908	      0.13130010	      0.02739095	      0.12958046	      0.01014572	      0.08168428
      0.24856097	     -9.93471443	     51.11373874	    -36.96066398	    267.33202339	      0.01001347	      0.15023313	      0.01954888	      0.09046934	      0.01868898	      0.08549589	      0.19418635	      0.13102400	      0.02740959	      0.12930039	      0.01014652	      0.08156736
      0.25034407	     -9.99990639	     51.58863964	    -36.16150493	    265.33558902	      0.01001341	      0.15036386	      0.01974640	      0.09064686	      0.01886630	      0.08567361	      0.19469891	      0.13074761	      0.02742700	      0.12902037	      0.01014771	      0.08145016
      0.25212718	    -10.06367482	     52.05996450	    -35.36388128	    263.31547826	      0.01001335	      0.15050867	      0.01994294	      0.09082261	      0.01904280	      0.08584942	      0.19520176	      0.13047106	      0.02744290	      0.12874047	      0.01014880	      0.08133271
      0.25391028	    -10.12602297	     52.52767819	    -34.56869241	    261.29096023	      0.01001329	      0.15063748	      0.02013822	      0.09099663	      0.01921832	      0.08602364	      0.19569353	      0.13019435	      0.02745728	      0.12846073	      0.01014958	      0.08121505
      0.25569339	    -10.18695557	     52.99176786	    -33.77615420	    259.24556450	      0.01001323	      0.15078034	      0.02033245	      0.09116887	      0.01939302	      0.08619595	      0.19617603	      0.12991756	      0.02747040	      0.12818122	      0.01015012	      0.08109722
      0.25747649	    -10.24647805	     53.45220443	    -32.98722479	    257.19895347	      0.01001317	      0.15090753	      0.02052579	      0.09133938	      0.01956704	      0.08636662	      0.19665077	      0.12964076	      0.02748246	      0.12790201	      0.01015044	      0.08097925
      0.25925960	    -10.30459724	     53.90898068	    -32.20220770	    255.13533611	      0.01001311	      0.15104810	      0.02071824	      0.09150810	      0.01974036	      0.08653543	      0.19711804	      0.12936401	      0.02749337	      0.12762313	      0.01015061	      0.08086118
      0.26104270	    -10.36132073	     54.36207410	    -31.42188174	    253.07309607	      0.01001305	      0.15117396	      0.02090889	      0.09167509	      0.01991217	      0.08670255	      0.19757162	      0.12908738	      0.02750125	      0.12734466	      0.01015078	      0.08074303
      0.26282580	    -10.41665730	     54.81148240	    -30.64665794	    250.99787919	      0.01001299	      0.15131196	      0.02109791	      0.09184032	      0.02008261	      0.08686788	      0.19801307	      0.12881094	      0.02750643	      0.12706666	      0.01015098	      0.08062484
      0.26460891	    -10.47061658	     55.25718969	    -29.87714002	    248.92616279	      0.01001293	      0.15143670	      0.02128559	      0.09200382	      0.02025192	      0.08703148	      0.19844438	      0.12853475	      0.02750933	      0.12678918	      0.01015118	      0.08050664
      0.26639201	    -10.52320914	     55.69919789	    -29.11379833	    246.84542811	      0.01001287	      0.15157197	      0.02147213	      0.09216555	      0.02042027	      0.08719331	      0.19886721	      0.12825886	      0.02751035	      0.12651227	      0.01015140	      0.08038847
      0.26817512	    -10.57444644	     56.13749739	    -28.35707678	    244.76985859	      0.01001281	      0.15169573	      0.02165699	      0.09232555	      0.02058722	      0.08735341	      0.19927903	      0.12798334	      0.02751003	      0.12623597	      0.01015158	      0.08027034
      0.26995822	    -10.62434072	     56.57209378	    -27.60752827	    242.68921521	      0.01001276	      0.15182814	      0.02183932	      0.09248383	      0.02075203	      0.08751177	      0.19967561	      0.12770824	      0.02750883	      0.12596033	      0.01015163	      0.08015229
      0.27174133	    -10.67290516	     57.00298369	    -26.86549943	    240.61528629	      0.01001270	      0.15195101	      0.02201948	      0.09264040	      0.02091502	      0.08766842	      0.20005922	      0.12743361	      0.02750680	      0.12568537	      0.01015162	      0.08003435
      0.27352443	    -10.72015358	     57.43017621	    -26.13156235	    238.54011747	      0.01001264	      0.15208053	      0.02219783	      0.09279525	      0.02107649	      0.08782335	      0.20043196	      0.12715952	      0.02750397	      0.12541115	      0.01015158	      0.07991654
      0.27530754	    -10.76610074	     57.85367380	    -25.40596352	    236.47295479	      0.01001259	      0.15220251	      0.02237462	      0.09294840	      0.02123664	      0.08797657	      0.20079534	      0.12688599	      0.02750037	      0.12513770	      0.01015152	      0.07979889
      0.27751554	    -10.82121627	     58.37298506	    -24.51982918	    233.91545389	      0.01001252	      0.15236230	      0.02259025	      0.09313574	      0.02143217	      0.08816400	      0.20122667	      0.12654815	      0.02749442	      0.12480022	      0.01015141	      0.07965347
      0.27918440	    -10.86158435	     58.76175565	    -23.85931308	    231.99589063	      0.01001246	      0.15247083	      0.02275075	      0.09327555	      0.02157781	      0.08830386	      0.20153866	      0.12629349	      0.02748872	      0.12454601	      0.01015130	      0.07954374
      0.28085327	    -10.90085716	     59.14732478	    -23.20735906	    230.07770095	      0.01001241	      0.15258771	      0.02290946	      0.09341395	      0.02172194	      0.08844232	      0.20184061	      0.12603946	      0.02748204	      0.12429258	      0.01015116	      0.07943422
